<svg width="50" height="50" viewBox="0 0 50 50" fill="none" xmlns="http://www.w3.org/2000/svg">
<g clip-path="url(#clip0)">
<path d="M48.4013 39.1747H1.59873C0.715723 39.1747 0 38.4588 0 37.5759V12.4242C0 11.5413 0.715723 10.8254 1.59873 10.8254H48.4013C49.2842 10.8254 50 11.5412 50 12.4242V37.5759C50 38.4588 49.2843 39.1747 48.4013 39.1747Z" fill="#5EA570"/>
<path d="M48.4013 10.8254H46.2863C47.1693 10.8254 47.885 11.5412 47.885 12.4242V37.5759C47.885 38.4588 47.1693 39.1747 46.2863 39.1747H48.4013C49.2842 39.1747 50 38.4588 50 37.5759V12.4242C50 11.5413 49.2843 10.8254 48.4013 10.8254Z" fill="#528E61"/>
<path d="M44.4253 31.0282C44.5611 31.0171 44.6651 30.9038 44.6651 30.7676V19.2322C44.6651 19.0962 44.5608 18.9827 44.4253 18.9716C43.0175 18.8561 41.8953 17.7323 41.782 16.3238C41.7713 16.1908 41.6605 16.0889 41.527 16.0889H8.4782C8.34216 16.0889 8.22869 16.1932 8.21755 16.3287C8.10212 17.7349 6.98083 18.8562 5.57468 18.9716C5.43884 18.9827 5.33484 19.096 5.33484 19.2322V30.7676C5.33484 30.9036 5.43914 31.0171 5.57468 31.0282C6.98083 31.1437 8.10212 32.2649 8.21755 33.6711C8.22869 33.8069 8.34197 33.9109 8.4782 33.9109H41.5218C41.6578 33.9109 41.7713 33.8066 41.7824 33.6711C41.8978 32.2649 43.0191 31.1437 44.4253 31.0282Z" fill="#8BC852"/>
<path d="M44.4252 18.9715C43.0174 18.856 41.8952 17.7322 41.782 16.3238C41.7712 16.1908 41.6605 16.0889 41.527 16.0889H38.9795C39.1129 16.0889 39.2238 16.1908 39.2345 16.3238C39.3478 17.7323 40.4699 18.856 41.8778 18.9715C42.0133 18.9826 42.1176 19.0961 42.1176 19.2321V30.7675C42.1176 30.9037 42.0136 31.017 41.8778 31.0281C40.4716 31.1435 39.3503 32.2648 39.2349 33.671C39.2238 33.8065 39.1103 33.9108 38.9742 33.9108H41.5217C41.6577 33.9108 41.7712 33.8065 41.7823 33.671C41.8978 32.2648 43.0191 31.1435 44.4252 31.0281C44.5611 31.017 44.6651 30.9037 44.6651 30.7675V19.2321C44.6651 19.0961 44.5609 18.9826 44.4252 18.9715Z" fill="#7DBE3B"/>
<path d="M25 36.3249C31.2546 36.3249 36.3248 31.2546 36.3248 25.0001C36.3248 18.7456 31.2546 13.6753 25 13.6753C18.7455 13.6753 13.6752 18.7456 13.6752 25.0001C13.6752 31.2546 18.7455 36.3249 25 36.3249Z" fill="#CBE7AF"/>
<path d="M25 13.6753C24.5831 13.6753 24.1716 13.6985 23.7664 13.7425C29.4404 14.3573 33.8574 19.1626 33.8574 25.0001C33.8574 30.8376 29.4404 35.6429 23.7664 36.2577C24.1716 36.3017 24.5832 36.3249 25 36.3249C31.2545 36.3249 36.3249 31.2546 36.3249 25.0001C36.3249 18.7456 31.2545 13.6753 25 13.6753Z" fill="#AAD880"/>
</g>
<defs>
<clipPath id="clip0">
<rect width="50" height="50" fill="white"/>
</clipPath>
</defs>
</svg>
